<svg xmlns="http://www.w3.org/2000/svg" width="29.5" height="29.63" viewBox="0 0 29.5 29.63">
  <metadata><?xpacket begin="﻿" id="W5M0MpCehiHzreSzNTczkc9d"?>
<x:xmpmeta xmlns:x="adobe:ns:meta/" x:xmptk="Adobe XMP Core 5.6-c142 79.160924, 2017/07/13-01:06:39        ">
   <rdf:RDF xmlns:rdf="http://www.w3.org/1999/02/22-rdf-syntax-ns#">
      <rdf:Description rdf:about=""/>
   </rdf:RDF>
</x:xmpmeta>
                                                                                                    
                                                                                                    
                                                                                                    
                                                                                                    
                                                                                                    
                                                                                                    
                                                                                                    
                                                                                                    
                                                                                                    
                                                                                                    
                                                                                                    
                                                                                                    
                                                                                                    
                                                                                                    
                                                                                                    
                                                                                                    
                                                                                                    
                                                                                                    
                                                                                                    
                                                                                                    
                           
<?xpacket end="w"?></metadata>
<defs>
    <style>
      .cls-1 {
        fill: #d94ae2;
        fill-rule: evenodd;
      }
    </style>
  </defs>
  <path id="beautiful" class="cls-1" d="M337.489,1284.8a1.788,1.788,0,0,0-.158-0.25l-0.565-.76a1.8,1.8,0,0,1-.019-2.13l0.553-.77a1.811,1.811,0,0,0-.41-2.52,1.986,1.986,0,0,0-.23-0.14l-0.845-.44a1.815,1.815,0,0,1-.95-1.91l0.161-.94a1.819,1.819,0,0,0-1.5-2.09,2.139,2.139,0,0,0-.253-0.02l-0.956-.04a1.861,1.861,0,0,1-1.7-1.31l-0.267-.91a1.852,1.852,0,0,0-2.318-1.24,1.326,1.326,0,0,0-.191.07l-0.886.38a1.867,1.867,0,0,1-2.112-.47l-0.64-.7a1.878,1.878,0,0,0-2.665-.09,0.822,0.822,0,0,0-.111.11l-0.627.72a1.9,1.9,0,0,1-2.106.49l-0.886-.36a1.868,1.868,0,0,0-2.438,1.03q-0.033.09-.06,0.18l-0.254.9a1.848,1.848,0,0,1-1.684,1.35l-0.956.05a1.821,1.821,0,0,0-1.739,1.91,1.78,1.78,0,0,0,.025.23l0.174,0.93a1.812,1.812,0,0,1-.925,1.92l-0.839.46a1.8,1.8,0,0,0-.746,2.42,2.625,2.625,0,0,0,.15.24l0.565,0.77a1.784,1.784,0,0,1,.019,2.12l-0.565.77a1.81,1.81,0,0,0,.407,2.52,2.012,2.012,0,0,0,.232.14l0.845,0.45a1.793,1.793,0,0,1,.95,1.9l-0.155.92a1.826,1.826,0,0,0,1.508,2.1,1,1,0,0,0,.244.02l0.956,0.04a1.853,1.853,0,0,1,1.7,1.32l0.267,0.91a1.855,1.855,0,0,0,2.318,1.23,1.371,1.371,0,0,0,.191-0.07l0.881-.37a1.847,1.847,0,0,1,2.113.45l0.639,0.7a1.879,1.879,0,0,0,2.665.1q0.058-.06.111-0.12l0.627-.71a1.876,1.876,0,0,1,2.106-.49l0.886,0.35a1.867,1.867,0,0,0,2.437-1.03c0.023-.06.043-0.11,0.06-0.17l0.255-.91a1.847,1.847,0,0,1,1.683-1.33l0.956-.06a1.821,1.821,0,0,0,1.742-1.9,2.136,2.136,0,0,0-.027-0.25l-0.175-.93a1.8,1.8,0,0,1,.926-1.91l0.838-.47A1.777,1.777,0,0,0,337.489,1284.8Zm-7.545-2.18a6.507,6.507,0,0,1-1.984,3.32l-5.081,4.55-4.994-4.55a6.516,6.516,0,0,1-1.985-3.32,4.428,4.428,0,0,1,3.758-5.5,3.718,3.718,0,0,1,3.225,1.91,3.846,3.846,0,0,1,3.3-1.91A4.425,4.425,0,0,1,329.944,1282.62Z" transform="translate(-308.188 -1268)"/>
</svg>
