<svg xmlns="http://www.w3.org/2000/svg" width="29.5" height="29.63" viewBox="0 0 29.5 29.63">
  <metadata><?xpacket begin="﻿" id="W5M0MpCehiHzreSzNTczkc9d"?>
<x:xmpmeta xmlns:x="adobe:ns:meta/" x:xmptk="Adobe XMP Core 5.6-c142 79.160924, 2017/07/13-01:06:39        ">
   <rdf:RDF xmlns:rdf="http://www.w3.org/1999/02/22-rdf-syntax-ns#">
      <rdf:Description rdf:about=""/>
   </rdf:RDF>
</x:xmpmeta>
                                                                                                    
                                                                                                    
                                                                                                    
                                                                                                    
                                                                                                    
                                                                                                    
                                                                                                    
                                                                                                    
                                                                                                    
                                                                                                    
                                                                                                    
                                                                                                    
                                                                                                    
                                                                                                    
                                                                                                    
                                                                                                    
                                                                                                    
                                                                                                    
                                                                                                    
                                                                                                    
                           
<?xpacket end="w"?></metadata>
<defs>
    <style>
      .cls-1 {
        fill: #00245e;
        fill-rule: evenodd;
      }
    </style>
  </defs>
  <path id="new" class="cls-1" d="M482.469,1284.8a1.8,1.8,0,0,0-.157-0.26l-0.566-.76a1.785,1.785,0,0,1-.018-2.12l0.553-.77a1.81,1.81,0,0,0-.41-2.52,1.986,1.986,0,0,0-.23-0.14l-0.845-.44a1.828,1.828,0,0,1-.95-1.91l0.161-.94a1.819,1.819,0,0,0-1.5-2.09,2.139,2.139,0,0,0-.253-0.02l-0.956-.04a1.87,1.87,0,0,1-1.7-1.32l-0.267-.91a1.855,1.855,0,0,0-2.318-1.23,1.326,1.326,0,0,0-.191.07l-0.886.37a1.863,1.863,0,0,1-2.112-.46l-0.64-.7a1.879,1.879,0,0,0-2.665-.1q-0.058.06-.111,0.12l-0.627.72a1.875,1.875,0,0,1-2.106.48l-0.886-.35a1.868,1.868,0,0,0-2.438,1.03c-0.023.06-.043,0.11-0.06,0.17l-0.254.91a1.851,1.851,0,0,1-1.684,1.34l-0.956.05a1.836,1.836,0,0,0-1.739,1.92,2,2,0,0,0,.025.23l0.173,0.93a1.789,1.789,0,0,1-.924,1.91l-0.839.47a1.792,1.792,0,0,0-.746,2.42,2.625,2.625,0,0,0,.15.24l0.565,0.77a1.784,1.784,0,0,1,.019,2.12l-0.565.77a1.812,1.812,0,0,0,.407,2.52,2.012,2.012,0,0,0,.232.14l0.845,0.44a1.807,1.807,0,0,1,.95,1.91l-0.156.92a1.828,1.828,0,0,0,1.508,2.1,2.006,2.006,0,0,0,.244.02l0.957,0.04a1.851,1.851,0,0,1,1.7,1.32l0.267,0.9a1.854,1.854,0,0,0,2.319,1.24,1.419,1.419,0,0,0,.191-0.07l0.881-.38a1.864,1.864,0,0,1,2.112.46l0.64,0.7a1.878,1.878,0,0,0,2.665.09,0.822,0.822,0,0,0,.111-0.11l0.627-.71a1.876,1.876,0,0,1,2.106-.49l0.886,0.35a1.867,1.867,0,0,0,2.437-1.03c0.023-.06.043-0.12,0.06-0.17l0.255-.91a1.856,1.856,0,0,1,1.683-1.34l0.956-.06a1.819,1.819,0,0,0,1.742-1.89,2.122,2.122,0,0,0-.027-0.25l-0.175-.93a1.792,1.792,0,0,1,.926-1.91l0.838-.47A1.776,1.776,0,0,0,482.469,1284.8Zm-18.371,3.31-3.907-2.73,1.605,3.73-1.07.46-2.463-5.72,1.121-.49,3.981,2.81-1.645-3.82,1.07-.46,2.464,5.72Zm2.374-1.02-2.463-5.73,4.232-1.83,0.417,0.97-3.08,1.33,0.546,1.27,2.865-1.24,0.415,0.96-2.865,1.24,0.67,1.56,3.188-1.38,0.415,0.97Zm9.647-4.18-2.978-3.79,0.709,4.77-1.25.54-3.825-5.13,1.179-.51,2.552,3.56-0.648-4.39,1.371-.59,2.72,3.57-0.844-4.38,1.16-.51,1.076,6.33Z" transform="translate(-453.156 -1268)"/>
</svg>
